<svg data-v-d3f97b9e="" xmlns="http://www.w3.org/2000/svg" viewBox="0 0 427 90"><!----><!----><!----><g data-v-d3f97b9e="" id="5a7aefd4-04db-4d9b-8918-96ba53fe44ac" fill="black" transform="matrix(4.590665753707728,0,0,4.590665753707728,77.48794494942916,-13.221118849712575)"><path d="M7.35 13.76L7.35 13.76Q7.88 13.76 8.34 13.61L8.34 13.61L8.34 13.61Q8.79 13.45 9.07 13.22L9.07 13.22L9.80 15.19L9.80 15.19Q9.00 15.95 7.10 15.95L7.10 15.95L7.10 15.95Q5.63 15.95 4.89 15.31L4.89 15.31L4.89 15.31Q4.14 14.67 4.14 13.65L4.14 13.65L4.14 13.65Q4.14 13.47 4.20 13.10L4.20 13.10L4.20 13.10Q2.39 12.85 1.40 11.63L1.40 11.63L1.40 11.63Q0.41 10.42 0.41 8.40L0.41 8.40L0.41 8.40Q0.41 6.90 0.97 5.83L0.97 5.83L0.97 5.83Q1.54 4.76 2.60 4.20L2.60 4.20L2.60 4.20Q3.65 3.64 5.11 3.64L5.11 3.64L5.11 3.64Q7.32 3.64 8.56 4.89L8.56 4.89L8.56 4.89Q9.80 6.15 9.80 8.40L9.80 8.40L9.80 8.40Q9.80 10.44 8.77 11.68L8.77 11.68L8.77 11.68Q7.74 12.91 5.88 13.12L5.88 13.12L5.88 13.12Q5.92 13.47 6.27 13.62L6.27 13.62L6.27 13.62Q6.62 13.76 7.35 13.76L7.35 13.76ZM5.11 6.09L5.11 6.09Q4.40 6.09 4.07 6.64L4.07 6.64L4.07 6.64Q3.74 7.20 3.74 8.40L3.74 8.40L3.74 8.40Q3.74 9.60 4.07 10.16L4.07 10.16L4.07 10.16Q4.40 10.71 5.11 10.71L5.11 10.71L5.11 10.71Q5.82 10.71 6.15 10.16L6.15 10.16L6.15 10.16Q6.47 9.60 6.47 8.40L6.47 8.40L6.47 8.40Q6.47 7.20 6.15 6.64L6.15 6.64L6.15 6.64Q5.82 6.09 5.11 6.09L5.11 6.09ZM15.12 6.02L18.34 6.02L18.34 13.02L15.44 13.02L15.37 11.54L15.37 11.54Q15.06 12.35 14.47 12.75L14.47 12.75L14.47 12.75Q13.87 13.16 13.01 13.16L13.01 13.16L13.01 13.16Q11.89 13.16 11.31 12.58L11.31 12.58L11.31 12.58Q10.74 12.00 10.74 10.75L10.74 10.75L10.74 6.02L13.96 6.02L13.96 9.95L13.96 9.95Q13.96 10.42 14.08 10.60L14.08 10.60L14.08 10.60Q14.20 10.78 14.48 10.78L14.48 10.78L14.48 10.78Q15.12 10.78 15.12 9.67L15.12 9.67L15.12 6.02ZM21.04 5.57L21.04 5.57Q20.09 5.57 19.69 5.26L19.69 5.26L19.69 5.26Q19.29 4.96 19.29 4.23L19.29 4.23L19.29 4.23Q19.29 3.50 19.69 3.19L19.69 3.19L19.69 3.19Q20.09 2.88 21.04 2.88L21.04 2.88L21.04 2.88Q21.99 2.88 22.39 3.19L22.39 3.19L22.39 3.19Q22.79 3.50 22.79 4.23L22.79 4.23L22.79 4.23Q22.79 4.96 22.39 5.26L22.39 5.26L22.39 5.26Q21.99 5.57 21.04 5.57L21.04 5.57ZM22.65 6.02L22.65 13.02L19.43 13.02L19.43 6.02L22.65 6.02ZM29.12 13.02L27.86 10.57L26.96 11.66L26.96 13.02L23.74 13.02L23.74 3.22L26.96 3.22L26.96 8.50L29.01 6.02L32.47 6.02L29.97 8.76L32.62 13.02L29.12 13.02ZM38.01 3.78L38.01 3.78Q41.89 3.78 41.89 7.01L41.89 7.01L41.89 7.01Q41.89 8.51 40.91 9.30L40.91 9.30L40.91 9.30Q39.93 10.08 38.01 10.08L38.01 10.08L36.37 10.08L36.37 13.02L33.11 13.02L33.11 3.78L38.01 3.78ZM37.48 7.84L37.48 7.84Q38.08 7.84 38.35 7.63L38.35 7.63L38.35 7.63Q38.63 7.42 38.63 6.97L38.63 6.97L38.63 6.97Q38.63 6.52 38.35 6.31L38.35 6.31L38.35 6.31Q38.08 6.10 37.48 6.10L37.48 6.10L36.37 6.10L36.37 7.84L37.48 7.84ZM46.20 5.88L46.20 5.88Q48.06 5.88 49.08 6.83L49.08 6.83L49.08 6.83Q50.11 7.78 50.11 9.52L50.11 9.52L50.11 9.52Q50.11 11.26 49.08 12.21L49.08 12.21L49.08 12.21Q48.06 13.16 46.20 13.16L46.20 13.16L46.20 13.16Q44.34 13.16 43.32 12.21L43.32 12.21L43.32 12.21Q42.29 11.26 42.29 9.52L42.29 9.52L42.29 9.52Q42.29 7.78 43.32 6.83L43.32 6.83L43.32 6.83Q44.34 5.88 46.20 5.88L46.20 5.88ZM46.20 8.05L46.20 8.05Q45.92 8.05 45.78 8.18L45.78 8.18L45.78 8.18Q45.64 8.30 45.58 8.61L45.58 8.61L45.58 8.61Q45.53 8.92 45.53 9.52L45.53 9.52L45.53 9.52Q45.53 10.12 45.58 10.43L45.58 10.43L45.58 10.43Q45.64 10.74 45.78 10.86L45.78 10.86L45.78 10.86Q45.92 10.99 46.20 10.99L46.20 10.99L46.20 10.99Q46.48 10.99 46.62 10.86L46.62 10.86L46.62 10.86Q46.76 10.74 46.82 10.43L46.82 10.43L46.82 10.43Q46.87 10.12 46.87 9.52L46.87 9.52L46.87 9.52Q46.87 8.92 46.82 8.61L46.82 8.61L46.82 8.61Q46.76 8.30 46.62 8.18L46.62 8.18L46.62 8.18Q46.48 8.05 46.20 8.05L46.20 8.05ZM55.30 6.02L58.52 6.02L58.52 13.02L55.62 13.02L55.55 11.54L55.55 11.54Q55.24 12.35 54.65 12.75L54.65 12.75L54.65 12.75Q54.05 13.16 53.19 13.16L53.19 13.16L53.19 13.16Q52.07 13.16 51.49 12.58L51.49 12.58L51.49 12.58Q50.92 12.00 50.92 10.75L50.92 10.75L50.92 6.02L54.14 6.02L54.14 9.95L54.14 9.95Q54.14 10.42 54.26 10.60L54.26 10.60L54.26 10.60Q54.38 10.78 54.66 10.78L54.66 10.78L54.66 10.78Q55.30 10.78 55.30 9.67L55.30 9.67L55.30 6.02ZM65.02 5.88L65.02 5.88Q66.05 5.88 66.63 6.50L66.63 6.50L66.63 6.50Q67.21 7.11 67.21 8.23L67.21 8.23L67.21 13.02L63.99 13.02L63.99 9.07L63.99 9.07Q63.99 8.61 63.88 8.43L63.88 8.43L63.88 8.43Q63.77 8.26 63.50 8.26L63.50 8.26L63.50 8.26Q63.15 8.26 62.99 8.53L62.99 8.53L62.99 8.53Q62.83 8.79 62.83 9.35L62.83 9.35L62.83 13.02L59.61 13.02L59.61 6.02L62.51 6.02L62.58 7.55L62.58 7.55Q62.89 6.73 63.50 6.31L63.50 6.31L63.50 6.31Q64.12 5.88 65.02 5.88L65.02 5.88ZM72.76 3.22L75.98 3.22L75.98 13.02L73.08 13.02L72.98 11.63L72.98 11.63Q72.67 12.35 72.11 12.75L72.11 12.75L72.11 12.75Q71.55 13.16 70.77 13.16L70.77 13.16L70.77 13.16Q69.48 13.16 68.79 12.22L68.79 12.22L68.79 12.22Q68.10 11.28 68.10 9.56L68.10 9.56L68.10 9.56Q68.10 7.81 68.80 6.85L68.80 6.85L68.80 6.85Q69.51 5.88 70.78 5.88L70.78 5.88L70.78 5.88Q71.50 5.88 71.99 6.23L71.99 6.23L71.99 6.23Q72.48 6.58 72.76 7.20L72.76 7.20L72.76 3.22ZM72.07 10.91L72.07 10.91Q72.41 10.91 72.58 10.59L72.58 10.59L72.58 10.59Q72.76 10.28 72.76 9.58L72.76 9.58L72.76 9.46L72.76 9.46Q72.76 8.79 72.59 8.47L72.59 8.47L72.59 8.47Q72.42 8.15 72.07 8.15L72.07 8.15L72.07 8.15Q71.71 8.15 71.53 8.44L71.53 8.44L71.53 8.44Q71.34 8.74 71.34 9.52L71.34 9.52L71.34 9.52Q71.34 10.30 71.53 10.61L71.53 10.61L71.53 10.61Q71.71 10.91 72.07 10.91L72.07 10.91Z"></path></g><!----><g data-v-d3f97b9e="" id="15983a0d-9ff3-4ca9-9eaf-c17741bc1725" transform="matrix(1.40625,0,0,1.40625,-30.80156296491623,-15.753125309944153)" stroke="none" fill="black"><path d="M48.7 15.7l-4.5 23.7 16.3.1-22.2 32.1 4.5-26.1-16.3-.1 22.2-29.7m0-4h-.3c-.7.1-1.2.3-1.7.7-.3.2-.6.5-.8.7-.1.1-.1.2-.2.3L23.2 43.1c-.9 1.2-1 2.8-.3 4.2.7 1.3 2.1 2.2 3.6 2.2l11.5.1L34.4 71c-.3 1.8.6 3.7 2.4 4.4.5.2 1.1.3 1.6.3 1.3 0 2.3-.6 3.1-1.7l22.4-32.1c.9-1.2 1-2.8.3-4.2-.7-1.3-2.1-2.2-3.6-2.2H49.1l3.6-18.8c.1-.3.1-.6.1-.9 0-2.2-1.7-3.9-3.9-4-.1-.1-.2-.1-.2-.1z"></path></g><!----><g data-v-d3f97b9e="" id="31833edf-b554-4799-9971-189f02ced190" fill="black" transform="matrix(0.8954130561543838,0,0,0.8954130561543838,78.30457671142852,57.80623881463936)"><path d="M1.19 2.80L1.19 12.60L1.61 12.60L1.61 2.80ZM17.99 2.80L17.99 11.79L10.50 2.45L10.50 12.60L10.92 12.60L10.92 3.61L18.41 12.95L18.41 2.80ZM27.05 9.74L26.67 9.90C27.30 11.77 28.35 12.71 29.82 12.71C30.73 12.71 31.43 12.45 31.89 11.93C32.36 11.41 32.59 10.77 32.59 10.01C32.59 9.66 32.53 9.35 32.42 9.06C32.30 8.78 32.17 8.55 32.02 8.37C31.88 8.19 31.68 8.02 31.42 7.86C31.15 7.70 30.94 7.58 30.78 7.50C30.62 7.43 30.39 7.34 30.11 7.22C30.08 7.21 29.96 7.16 29.76 7.08C29.57 7.01 29.45 6.96 29.40 6.94C29.35 6.91 29.25 6.87 29.08 6.80C28.91 6.73 28.80 6.67 28.75 6.64C28.70 6.60 28.61 6.54 28.48 6.45C28.35 6.37 28.26 6.30 28.21 6.24C28.16 6.18 28.10 6.10 28.01 6.00C27.93 5.90 27.87 5.80 27.84 5.70C27.81 5.61 27.78 5.50 27.75 5.38C27.72 5.25 27.71 5.12 27.71 4.98C27.71 4.41 27.90 3.95 28.30 3.62C28.70 3.29 29.19 3.12 29.78 3.12C30.91 3.12 31.69 3.77 32.13 5.07L32.54 4.90C32.33 4.23 31.99 3.69 31.53 3.29C31.06 2.89 30.48 2.69 29.79 2.69C29.10 2.69 28.50 2.90 27.99 3.33C27.48 3.76 27.23 4.33 27.23 5.04C27.23 5.39 27.30 5.71 27.45 5.99C27.59 6.27 27.81 6.51 28.09 6.71C28.38 6.91 28.63 7.07 28.86 7.17C29.09 7.28 29.39 7.41 29.75 7.55C30.03 7.65 30.22 7.72 30.32 7.77C30.43 7.82 30.60 7.90 30.84 8.02C31.08 8.13 31.26 8.24 31.37 8.34C31.47 8.45 31.60 8.58 31.74 8.75C31.89 8.92 31.99 9.11 32.05 9.32C32.10 9.54 32.13 9.78 32.13 10.05C32.13 10.72 31.94 11.27 31.56 11.68C31.18 12.09 30.62 12.29 29.86 12.29C28.63 12.29 27.69 11.44 27.05 9.74ZM40.64 3.21L43.16 3.21L43.16 12.60L43.58 12.60L43.58 3.21L46.10 3.21L46.10 2.80L40.64 2.80ZM56.74 2.45L52.47 12.60L52.96 12.60L54.24 9.52L59.25 9.52L60.52 12.60L61.01 12.60ZM56.74 3.50L59.05 9.07L54.43 9.07ZM77.60 7.63L73.54 7.63L73.54 8.11L77.13 8.11C77.04 9.32 76.65 10.32 75.94 11.09C75.23 11.87 74.29 12.26 73.12 12.26C71.83 12.26 70.79 11.82 70 10.94C69.21 10.06 68.81 8.98 68.81 7.70C68.81 6.40 69.21 5.32 70.02 4.45C70.83 3.57 71.86 3.14 73.12 3.14C73.87 3.14 74.56 3.31 75.20 3.65C75.84 4.00 76.35 4.47 76.73 5.05L77.13 4.75C76.69 4.11 76.13 3.61 75.45 3.24C74.76 2.87 73.99 2.69 73.12 2.69C71.77 2.69 70.64 3.17 69.73 4.13C68.82 5.09 68.36 6.28 68.36 7.70C68.36 9.12 68.82 10.31 69.73 11.27C70.64 12.23 71.77 12.71 73.12 12.71C74.49 12.71 75.58 12.22 76.39 11.23C77.20 10.25 77.60 9.05 77.60 7.63ZM87.05 2.80ZM86.63 2.80L86.63 12.60L87.05 12.60L87.05 8.48L88.61 8.48L91.73 12.60L92.27 12.60L89.08 8.47C89.98 8.41 90.69 8.15 91.23 7.67C91.77 7.20 92.04 6.52 92.04 5.64C92.04 4.71 91.73 4.00 91.13 3.52C90.52 3.04 89.72 2.80 88.73 2.80ZM87.05 3.21L88.73 3.21C89.60 3.21 90.30 3.41 90.82 3.83C91.34 4.24 91.60 4.85 91.60 5.64C91.60 6.44 91.34 7.04 90.82 7.45C90.30 7.87 89.60 8.08 88.73 8.08L87.05 8.08ZM103.89 2.45L99.62 12.60L100.11 12.60L101.39 9.52L106.40 9.52L107.67 12.60L108.16 12.60ZM103.89 3.50L106.20 9.07L101.58 9.07ZM124.88 3.86L125.73 12.60L126.15 12.60L125.10 2.45L121.18 10.70L117.26 2.45L116.21 12.60L116.63 12.60L117.49 3.86L121.18 11.69ZM146.45 2.80L146.45 12.60L148.83 12.60C150.25 12.60 151.39 12.15 152.24 11.25C153.10 10.35 153.52 9.17 153.52 7.70C153.52 6.23 153.10 5.05 152.24 4.15C151.39 3.25 150.25 2.80 148.83 2.80ZM146.87 3.22L148.83 3.22C150.13 3.22 151.16 3.63 151.93 4.46C152.69 5.28 153.08 6.37 153.08 7.70C153.08 9.09 152.70 10.18 151.94 10.98C151.19 11.78 150.15 12.18 148.83 12.18L146.87 12.18ZM162.34 7.70C162.34 6.38 162.75 5.29 163.56 4.41C164.37 3.53 165.40 3.09 166.64 3.09C167.88 3.09 168.91 3.53 169.72 4.41C170.53 5.29 170.94 6.38 170.94 7.70C170.94 9.02 170.53 10.11 169.72 10.99C168.91 11.87 167.88 12.31 166.64 12.31C165.40 12.31 164.37 11.87 163.56 10.99C162.75 10.11 162.34 9.02 162.34 7.70ZM161.92 7.70C161.92 9.16 162.37 10.36 163.26 11.30C164.15 12.24 165.28 12.71 166.64 12.71C168.00 12.71 169.13 12.24 170.02 11.30C170.91 10.36 171.36 9.16 171.36 7.70C171.36 6.24 170.91 5.04 170.02 4.10C169.13 3.16 168.00 2.69 166.64 2.69C165.28 2.69 164.15 3.16 163.26 4.10C162.37 5.04 161.92 6.24 161.92 7.70ZM187.25 2.80L187.25 11.79L179.76 2.45L179.76 12.60L180.18 12.60L180.18 3.61L187.67 12.95L187.67 2.80ZM197.89 2.80L196.77 7.00L197.05 7.00L198.45 2.80ZM206.78 3.21L209.30 3.21L209.30 12.60L209.72 12.60L209.72 3.21L212.24 3.21L212.24 2.80L206.78 2.80ZM231.66 9.74L231.28 9.90C231.91 11.77 232.96 12.71 234.43 12.71C235.34 12.71 236.04 12.45 236.50 11.93C236.97 11.41 237.20 10.77 237.20 10.01C237.20 9.66 237.14 9.35 237.03 9.06C236.91 8.78 236.78 8.55 236.64 8.37C236.49 8.19 236.29 8.02 236.03 7.86C235.76 7.70 235.55 7.58 235.39 7.50C235.23 7.43 235.00 7.34 234.72 7.22C234.69 7.21 234.57 7.16 234.37 7.08C234.18 7.01 234.06 6.96 234.01 6.94C233.96 6.91 233.86 6.87 233.69 6.80C233.52 6.73 233.41 6.67 233.36 6.64C233.31 6.60 233.22 6.54 233.09 6.45C232.96 6.37 232.87 6.30 232.82 6.24C232.77 6.18 232.71 6.10 232.62 6.00C232.54 5.90 232.48 5.80 232.45 5.70C232.42 5.61 232.39 5.50 232.36 5.38C232.33 5.25 232.32 5.12 232.32 4.98C232.32 4.41 232.51 3.95 232.91 3.62C233.31 3.29 233.80 3.12 234.39 3.12C235.52 3.12 236.30 3.77 236.74 5.07L237.15 4.90C236.94 4.23 236.60 3.69 236.14 3.29C235.67 2.89 235.09 2.69 234.40 2.69C233.71 2.69 233.11 2.90 232.60 3.33C232.09 3.76 231.84 4.33 231.84 5.04C231.84 5.39 231.91 5.71 232.06 5.99C232.20 6.27 232.42 6.51 232.70 6.71C232.99 6.91 233.24 7.07 233.47 7.17C233.70 7.28 234.00 7.41 234.36 7.55C234.64 7.65 234.83 7.72 234.93 7.77C235.04 7.82 235.21 7.90 235.45 8.02C235.69 8.13 235.87 8.24 235.98 8.34C236.08 8.45 236.21 8.58 236.36 8.75C236.50 8.92 236.60 9.11 236.66 9.32C236.71 9.54 236.74 9.78 236.74 10.05C236.74 10.72 236.55 11.27 236.17 11.68C235.80 12.09 235.23 12.29 234.47 12.29C233.24 12.29 232.30 11.44 231.66 9.74ZM246.16 2.80L246.16 9.24C246.16 10.29 246.45 11.13 247.02 11.77C247.59 12.42 248.34 12.74 249.28 12.74C250.23 12.74 250.98 12.42 251.55 11.77C252.12 11.13 252.41 10.29 252.41 9.24L252.41 2.80L251.99 2.80L251.99 9.24C251.99 10.17 251.73 10.92 251.22 11.47C250.71 12.02 250.07 12.29 249.28 12.29C248.50 12.29 247.85 12.02 247.35 11.47C246.84 10.92 246.58 10.17 246.58 9.24L246.58 2.80ZM262.28 7.48L266.62 7.48L266.62 7.08L262.28 7.08L262.28 3.21L266.90 3.21L266.90 2.80L261.86 2.80L261.86 12.60L266.90 12.60L266.90 12.19L262.28 12.19ZM295.72 3.86L296.58 12.60L297.00 12.60L295.95 2.45L292.03 10.70L288.11 2.45L287.06 12.60L287.48 12.60L288.33 3.86L292.03 11.69ZM306.52 7.48L310.86 7.48L310.86 7.08L306.52 7.08L306.52 3.21L311.14 3.21L311.14 2.80L306.10 2.80L306.10 12.60L311.14 12.60L311.14 12.19L306.52 12.19Z"></path></g></svg>