<svg data-v-d3f97b9e="" xmlns="http://www.w3.org/2000/svg" viewBox="0 0 39.580078125 60"><!----><!----><!----><!----><g data-v-d3f97b9e="" id="7750429e-e361-4f4f-a275-06d815d7c9f0" transform="matrix(0.9375,0,0,0.9375,-21.038087010383606,-10.968750715255737)" stroke="none" fill="black"><path d="M48.7 15.7l-4.5 23.7 16.3.1-22.2 32.1 4.5-26.1-16.3-.1 22.2-29.7m0-4h-.3c-.7.1-1.2.3-1.7.7-.3.2-.6.5-.8.7-.1.1-.1.2-.2.3L23.2 43.1c-.9 1.2-1 2.8-.3 4.2.7 1.3 2.1 2.2 3.6 2.2l11.5.1L34.4 71c-.3 1.8.6 3.7 2.4 4.4.5.2 1.1.3 1.6.3 1.3 0 2.3-.6 3.1-1.7l22.4-32.1c.9-1.2 1-2.8.3-4.2-.7-1.3-2.1-2.2-3.6-2.2H49.1l3.6-18.8c.1-.3.1-.6.1-.9 0-2.2-1.7-3.9-3.9-4-.1-.1-.2-.1-.2-.1z"></path></g><!----></svg>