<svg data-v-29081953="" xmlns="http://www.w3.org/2000/svg" viewBox="0 0 300 300"><!----><defs data-v-29081953=""><!----></defs><rect data-v-29081953="" fill="#81AAD9" x="0" y="0" width="300px" height="300px" class="logo-background-square"></rect><!----><defs data-v-29081953=""><!----></defs><g data-v-29081953="" id="d66511fb-ae14-4b76-af1e-c237e2910bb3" fill="#F2CCB1" stroke="none" transform="matrix(3.4375,0,0,3.4375,0.2968710660934448,-0.21875262260437012)"><path d="M48.7 15.7l-4.5 23.7 16.3.1-22.2 32.1 4.5-26.1-16.3-.1 22.2-29.7m0-4h-.3c-.7.1-1.2.3-1.7.7-.3.2-.6.5-.8.7-.1.1-.1.2-.2.3L23.2 43.1c-.9 1.2-1 2.8-.3 4.2.7 1.3 2.1 2.2 3.6 2.2l11.5.1L34.4 71c-.3 1.8.6 3.7 2.4 4.4.5.2 1.1.3 1.6.3 1.3 0 2.3-.6 3.1-1.7l22.4-32.1c.9-1.2 1-2.8.3-4.2-.7-1.3-2.1-2.2-3.6-2.2H49.1l3.6-18.8c.1-.3.1-.6.1-.9 0-2.2-1.7-3.9-3.9-4-.1-.1-.2-.1-.2-.1z"></path></g><!----></svg>